<?xml version="1.0" encoding="utf-8"?>
<!-- Generator: Adobe Illustrator 24.0.1, SVG Export Plug-In . SVG Version: 6.00 Build 0)  -->
<svg version="1.1" id="Layer_1" xmlns="http://www.w3.org/2000/svg" xmlns:xlink="http://www.w3.org/1999/xlink" x="0px" y="0px"
	 viewBox="0 0 155 47" style="enable-background:new 0 0 155 47;" xml:space="preserve">
<style type="text/css">
	.st0{fill:#FFFFFF;}
</style>
<g id="Layer_2_1_">
	<polygon class="st0" points="20.1,10.1 22.4,9.2 27.9,19.1 25.6,20 	"/>
	<polygon class="st0" points="32.1,25.2 32.9,23.1 45,26.5 44.2,28.6 	"/>
	<polygon class="st0" points="17.7,31 26.7,23.3 28.5,24.8 19.5,32.6 	"/>
	<g>
		<path class="st0" d="M43.3,35.4c1.7,0.7,3.4,1.3,5.1,1.9c1.7,0.6,3.5,1,5.2,1.4c0.9,0.2,1.8,0.3,2.7,0.3s1.8,0,2.6-0.3
			c0.8-0.2,1.5-0.6,2-1.2c0.5-0.6,0.7-1.3,0.8-2v0.1l-0.1-6.2v-0.3l0.3-0.2l3.5-2.2l0.9-0.6l0.5-0.3l0.2-0.1l0,0l0,0l0,0
			c0.1-0.1,0.2-0.3,0.2-0.5c0-0.1,0-0.2,0-0.4s0-0.3-0.1-0.4c-0.1-0.5-0.3-1-0.6-1.6L66,22.5c-0.1-0.1-0.2-0.3-0.3-0.4
			c-0.2-0.3-0.3-0.5-0.5-0.8c-0.7-1-1.6-2-2.5-2.9l-0.2-0.3v-0.3c0.1-1,0.2-2,0-3s-0.4-2-0.8-2.9c-0.4-0.9-0.9-1.8-1.6-2.6
			c-0.7-0.8-1.4-1.6-2.3-2.3C56.9,6.3,56,5.7,55,5.2s-2-1-3.1-1.4c-2.1-0.8-4.4-1.3-6.8-1.6C43.9,2.1,42.8,2,41.6,2
			c-0.6,0-1.2,0.1-1.7,0.1c-0.6,0.1-1.2,0.1-1.7,0.2c-0.6,0.1-1.1,0.2-1.7,0.3c-0.3,0.1-0.5,0.2-0.8,0.2c-0.2,0-0.3,0.1-0.4,0.1
			L35,3.4c-1.1,0.4-2.1,0.9-3.2,1.4c-2,1-4,2.3-5.6,3.7c-1.7,1.4-3,3.2-3.7,5l0,0l0,0c-1.1,2.1-1.7,4.4-1.9,6.7
			c-0.1,1.1-0.1,2.3,0,3.4c0,0.6,0.2,1.1,0.3,1.7c0.2,0.6,0.3,1.1,0.5,1.7c0.7,2.2,1.9,4.3,3.4,6.2c1.5,1.9,3.4,3.6,5.6,5l0.2,0.1
			v0.1l-0.2,4l-0.2,4H30l0.1-8l0,0c-4.5-2.7-7.9-6.8-9.4-11.4c-0.2-0.6-0.3-1.1-0.5-1.7c-0.1-0.6-0.3-1.2-0.3-1.8
			c-0.2-1.2-0.2-2.4-0.1-3.6c0.2-2.4,0.8-4.7,1.8-6.9l0,0c0.8-2,2.2-3.9,3.9-5.4c1.7-1.5,3.7-2.8,5.8-3.9c1.1-0.5,2.1-1,3.3-1.5
			c1.1-0.4,2.3-0.7,3.5-0.9c0.6-0.1,1.2-0.2,1.8-0.2S41.1,1,41.7,1c1.2,0,2.5,0,3.7,0.1c2.6,0.6,4.9,1.1,7.2,2
			c1.1,0.4,2.2,0.9,3.2,1.5c1,0.6,2,1.2,2.9,2c0.9,0.8,1.7,1.5,2.4,2.4c0.7,0.9,1.3,1.8,1.7,2.8c0.5,1,0.7,2.1,0.8,3.1
			c0.2,1.1,0.1,2.1,0,3.2V18c0.9,1,1.8,2,2.5,3c0.2,0.3,0.4,0.5,0.5,0.8c0.1,0.1,0.2,0.3,0.3,0.4l0.2,0.4c0.3,0.6,0.6,1.1,0.7,1.8
			c0,0.2,0.1,0.3,0.1,0.5s0,0.3,0,0.5c0,0.3-0.2,0.7-0.4,0.9c0,0.1-0.2,0.1-0.2,0.2l-0.2,0.1l-0.5,0.3l-0.9,0.5l-3.5,2.1v-0.1v6.2
			l0,0l0,0c-0.1,0.8-0.4,1.6-0.9,2.3S59.8,39,59,39.2c-0.9,0.2-1.8,0.3-2.8,0.2c-0.9,0-1.8-0.2-2.8-0.4c-1.8-0.4-3.5-0.9-5.3-1.5
			C46.6,36.9,44.9,36.2,43.3,35.4L43.3,35.4z"/>
	</g>
	<g>
		<ellipse class="st0" cx="45.9" cy="28.6" rx="6.4" ry="5.5"/>
		<ellipse class="st0" cx="45.9" cy="28.5" rx="4.5" ry="3.9"/>
	</g>
	<g>
		<ellipse class="st0" cx="18.1" cy="32.9" rx="5" ry="4.3"/>
		<ellipse class="st0" cx="18.1" cy="32.9" rx="3.5" ry="3"/>
	</g>
	<g>
		<ellipse class="st0" cx="28.5" cy="22.8" rx="5.1" ry="4.4"/>
		<ellipse class="st0" cx="28.5" cy="22.8" rx="3.5" ry="3.1"/>
	</g>
	<g>
		<ellipse class="st0" cx="18.6" cy="6.1" rx="6.4" ry="5.5"/>
		<ellipse class="st0" cx="18.6" cy="6" rx="4.5" ry="3.9"/>
	</g>
	<g>
		<path class="st0" d="M31.1,42.5h1.4l0,0c0,0.5,0.4,0.8,1.2,1.1c0.8,0.3,1.8,0.4,3.1,0.4s2.3-0.1,3.1-0.4c0.8-0.2,1.1-0.6,1.1-0.9
			c0-0.3-0.2-0.5-0.6-0.7c-0.4-0.2-1.4-0.3-2.7-0.4l-2.9-0.2c-1.1-0.1-1.9-0.3-2.4-0.5c-0.5-0.3-0.8-0.6-0.8-1c0-0.6,0.5-1,1.4-1.3
			c0.9-0.3,2.2-0.5,3.7-0.5c1.6,0,2.9,0.2,3.8,0.5c0.9,0.3,1.4,0.8,1.5,1.4h-1.4c-0.1-0.4-0.5-0.8-1.1-1c-0.7-0.2-1.6-0.3-2.8-0.3
			s-2.1,0.1-2.8,0.3s-1,0.5-1,0.9c0,0.3,0.2,0.5,0.7,0.7s1.4,0.3,2.6,0.4l2.6,0.2c1.2,0.1,2.1,0.3,2.7,0.5c0.6,0.3,0.9,0.6,0.9,1.1
			c0,0.6-0.5,1.1-1.4,1.4c-1,0.3-2.3,0.5-4,0.5c-1.8,0-3.2-0.2-4.2-0.6C31.5,43.8,31,43.2,31.1,42.5L31.1,42.5L31.1,42.5z"/>
		<path class="st0" d="M46.6,43.3c0,0.3,0.1,0.6,0.2,0.6C47,44,47.3,44,47.7,44c0.2,0,0.3,0,0.5,0s0.4,0,0.6-0.1v0.5
			c-0.3,0-0.6,0.1-0.9,0.1s-0.5,0-0.8,0c-0.7,0-1.2-0.1-1.5-0.3s-0.5-0.5-0.5-0.9v-2.9h-1.7v-0.5h1.7v-1.3h1.3v1.3h2.2v0.5h-2.2
			L46.6,43.3L46.6,43.3z"/>
		<path class="st0" d="M59.5,40v4.6h-1.2v-0.9c-0.5,0.3-1.1,0.6-1.8,0.7c-0.7,0.2-1.5,0.2-2.4,0.2c-1.3,0-2.3-0.1-2.9-0.4
			c-0.6-0.3-0.9-0.7-0.9-1.3V40h1.3v2.6c0,0.6,0.2,1,0.6,1.2c0.4,0.2,1.1,0.3,2.1,0.3c1.1,0,2.1-0.1,2.8-0.4
			c0.7-0.3,1.1-0.7,1.1-1.1V40H59.5L59.5,40z"/>
		<path class="st0" d="M72.1,38.3v6.2h-1.3v-0.8c-0.5,0.3-1.1,0.6-1.7,0.7c-0.6,0.2-1.4,0.2-2.3,0.2c-1.5,0-2.8-0.2-3.8-0.7
			c-0.9-0.4-1.4-1-1.4-1.7s0.5-1.3,1.4-1.7s2.2-0.7,3.8-0.7c0.8,0,1.6,0.1,2.2,0.2c0.6,0.1,1.2,0.4,1.7,0.7v-2.4H72.1L72.1,38.3z
			 M70.8,42.3c0-0.6-0.4-1-1.1-1.3s-1.7-0.5-2.9-0.5c-1.2,0-2.1,0.2-2.9,0.5c-0.7,0.3-1.1,0.8-1.1,1.3c0,0.6,0.3,1,1.1,1.3
			c0.7,0.3,1.7,0.5,2.9,0.5c1.2,0,2.1-0.2,2.9-0.5C70.4,43.2,70.8,42.8,70.8,42.3z"/>
		<path class="st0" d="M84.4,43.1c-0.3,0.5-0.8,0.9-1.7,1.2c-0.9,0.3-1.9,0.4-3.2,0.4c-1.6,0-2.9-0.2-3.8-0.7c-1-0.5-1.5-1-1.5-1.8
			c0-0.7,0.5-1.3,1.5-1.8c1-0.5,2.3-0.7,3.8-0.7c1.6,0,2.9,0.2,3.8,0.7c0.9,0.4,1.4,1,1.4,1.8v0.1h-9.2c0.1,0.6,0.5,1,1.1,1.3
			c0.7,0.3,1.6,0.5,2.8,0.5c0.8,0,1.5-0.1,2.1-0.3s1-0.4,1.3-0.8L84.4,43.1L84.4,43.1z M75.7,41.9h7.6c-0.1-0.5-0.5-0.8-1.1-1.1
			c-0.7-0.3-1.6-0.4-2.6-0.4c-1.1,0-2,0.1-2.7,0.4C76.1,41.1,75.8,41.4,75.7,41.9z"/>
		<path class="st0" d="M86.8,44.5v-4.6H88v0.8c0.5-0.3,1.1-0.6,1.8-0.7c0.7-0.1,1.5-0.2,2.4-0.2c1.3,0,2.3,0.1,2.9,0.4
			c0.6,0.3,0.9,0.7,0.9,1.3v3h-1.3v-2.6c0-0.6-0.2-1-0.6-1.2S93,40.4,92,40.4c-1.1,0-2.1,0.1-2.8,0.4c-0.7,0.3-1.1,0.7-1.1,1.1v2.6
			H86.8L86.8,44.5z"/>
		<path class="st0" d="M100.6,43.3c0,0.3,0.1,0.6,0.2,0.6c0.2,0.1,0.5,0.1,0.9,0.1c0.2,0,0.3,0,0.5,0s0.4,0,0.6-0.1v0.5
			c-0.3,0-0.6,0.1-0.9,0.1s-0.5,0-0.8,0c-0.7,0-1.2-0.1-1.5-0.3S99,43.7,99,43.3v-2.9h-1.7v-0.5H99v-1.3h1.3v1.3h2.3v0.5h-2.3v2.9
			H100.6z"/>
		<path class="st0" d="M104.6,44.5v-6.2h5.4c1.7,0,2.9,0.2,3.7,0.5c0.8,0.3,1.2,0.8,1.2,1.4c0,0.6-0.4,1.1-1.2,1.4
			c-0.8,0.3-2.1,0.5-3.7,0.5h-4.1v2.5L104.6,44.5L104.6,44.5z M105.9,41.4h3.9c1.4,0,2.4-0.1,3-0.3s0.8-0.5,0.8-1s-0.3-0.8-0.8-1
			c-0.6-0.2-1.5-0.3-3-0.3h-3.9V41.4L105.9,41.4z"/>
		<path class="st0" d="M117.2,44.5v-6.2h1.3v6.2H117.2z"/>
		<path class="st0" d="M130.4,40v4.6h-1.2v-0.9c-0.5,0.3-1.1,0.6-1.8,0.7c-0.7,0.2-1.5,0.2-2.4,0.2c-1.3,0-2.3-0.1-2.9-0.4
			c-0.6-0.3-0.9-0.7-0.9-1.3V40h1.3v2.6c0,0.6,0.2,1,0.6,1.2s1.1,0.3,2.1,0.3c1.1,0,2.1-0.1,2.8-0.4c0.7-0.3,1.1-0.7,1.1-1.1V40
			H130.4L130.4,40z"/>
		<path class="st0" d="M132.4,43.1h1.3c0.1,0.3,0.4,0.6,1,0.8c0.6,0.2,1.4,0.3,2.5,0.3c1.1,0,2-0.1,2.5-0.2c0.6-0.1,0.9-0.4,0.9-0.6
			c0-0.2-0.2-0.4-0.4-0.5c-0.3-0.1-0.8-0.2-1.4-0.2l-2.9-0.2c-1.1-0.1-1.9-0.2-2.4-0.4s-0.8-0.5-0.8-0.8c0-0.4,0.4-0.8,1.2-1
			s1.8-0.4,3.2-0.4s2.5,0.1,3.2,0.4c0.8,0.3,1.2,0.6,1.2,1.1h-1.3c-0.1-0.3-0.4-0.6-1-0.7c-0.6-0.2-1.4-0.2-2.4-0.2
			c-0.9,0-1.6,0.1-2.1,0.2s-0.8,0.3-0.8,0.6c0,0.2,0.2,0.4,0.5,0.5s0.9,0.2,1.8,0.3l2.6,0.2c1.1,0.1,1.9,0.2,2.4,0.4
			s0.7,0.5,0.7,0.8c0,0.5-0.4,0.8-1.2,1.1s-2,0.4-3.7,0.4c-1.4,0-2.5-0.1-3.3-0.4C132.9,44,132.4,43.6,132.4,43.1z"/>
	</g>
</g>
</svg>
