<?xml version="1.0" encoding="utf-8"?>
<!-- Generator: Adobe Illustrator 24.0.1, SVG Export Plug-In . SVG Version: 6.00 Build 0)  -->
<svg version="1.1" id="Layer_1" xmlns="http://www.w3.org/2000/svg" xmlns:xlink="http://www.w3.org/1999/xlink" x="0px" y="0px"
	 viewBox="0 0 155 47" style="enable-background:new 0 0 155 47;" xml:space="preserve">
<style type="text/css">
	.st0{fill:#434083;}
	.st1{fill:#05A457;}
	.st2{fill:#FFFFFF;}
</style>
<g id="Layer_2_1_">
	<polygon class="st0" points="8.1,11.4 10.4,10.5 15.9,20.4 13.6,21.3 	"/>
	<polygon class="st0" points="20.1,26.5 20.9,24.4 33,27.8 32.2,29.9 	"/>
	<polygon class="st0" points="5.7,32.3 14.7,24.6 16.5,26.1 7.5,33.9 	"/>
	<g>
		<path class="st1" d="M31.3,36.7c1.7,0.7,3.4,1.3,5.1,1.9c1.7,0.6,3.5,1,5.2,1.4c0.9,0.2,1.8,0.3,2.7,0.3s1.8,0,2.6-0.3
			c0.8-0.2,1.5-0.6,2-1.2c0.5-0.6,0.7-1.3,0.8-2v0.1l-0.1-6.2v-0.3l0.3-0.2l3.5-2.2l0.9-0.6l0.5-0.3l0.2-0.1l0,0c0,0,0,0,0,0
			s0,0,0,0c0.1-0.1,0.2-0.3,0.2-0.5c0-0.1,0-0.2,0-0.4s0-0.3-0.1-0.4c-0.1-0.5-0.3-1-0.6-1.6L54,23.8c-0.1-0.1-0.2-0.3-0.3-0.4
			c-0.2-0.3-0.3-0.5-0.5-0.8c-0.7-1-1.6-2-2.5-2.9l-0.2-0.3l0-0.3c0.1-1,0.2-2,0-3c-0.2-1-0.4-2-0.8-2.9c-0.4-0.9-0.9-1.8-1.6-2.6
			c-0.7-0.8-1.4-1.6-2.3-2.3c-0.9-0.7-1.8-1.3-2.8-1.8c-1-0.5-2-1-3.1-1.4c-2.1-0.8-4.4-1.3-6.8-1.6c-1.2-0.1-2.3-0.2-3.5-0.2
			c-0.6,0-1.2,0.1-1.7,0.1c-0.6,0.1-1.2,0.1-1.7,0.2c-0.6,0.1-1.1,0.2-1.7,0.3c-0.3,0.1-0.5,0.2-0.8,0.2c-0.2,0-0.3,0.1-0.4,0.1
			L23,4.7c-1.1,0.4-2.1,0.9-3.2,1.4c-2,1-4,2.3-5.6,3.7c-1.7,1.4-3,3.2-3.7,5v0l0,0c-1.1,2.1-1.7,4.4-1.9,6.7
			c-0.1,1.1-0.1,2.3,0,3.4c0,0.6,0.2,1.1,0.3,1.7c0.2,0.6,0.3,1.1,0.5,1.7c0.7,2.2,1.9,4.3,3.4,6.2c1.5,1.9,3.4,3.6,5.6,5l0.2,0.1
			v0.1l-0.2,4l-0.2,4H18l0.1-8l0,0c-4.5-2.7-7.9-6.8-9.4-11.4c-0.2-0.6-0.3-1.1-0.5-1.7c-0.1-0.6-0.3-1.2-0.3-1.8
			c-0.2-1.2-0.2-2.4-0.1-3.6c0.2-2.4,0.8-4.7,1.8-6.9l0,0c0.8-2,2.2-3.9,3.9-5.4c1.7-1.5,3.7-2.8,5.8-3.9c1.1-0.5,2.1-1,3.3-1.5
			c1.1-0.4,2.3-0.7,3.5-0.9c0.6-0.1,1.2-0.2,1.8-0.2c0.6,0,1.2-0.1,1.8-0.1c1.2,0,2.5,0,3.7,0.1C36,3,38.3,3.5,40.6,4.4
			c1.1,0.4,2.2,0.9,3.2,1.5c1,0.6,2,1.2,2.9,2c0.9,0.8,1.7,1.5,2.4,2.4c0.7,0.9,1.3,1.8,1.7,2.8c0.5,1,0.7,2.1,0.8,3.1
			c0.2,1.1,0.1,2.1,0,3.2v-0.1c0.9,1,1.8,2,2.5,3c0.2,0.3,0.4,0.5,0.5,0.8c0.1,0.1,0.2,0.3,0.3,0.4l0.2,0.4c0.3,0.6,0.6,1.1,0.7,1.8
			c0,0.2,0.1,0.3,0.1,0.5c0,0.2,0,0.3,0,0.5c0,0.3-0.2,0.7-0.4,0.9c0,0.1-0.2,0.1-0.2,0.2l-0.2,0.1l-0.5,0.3l-0.9,0.5l-3.5,2.1
			l0-0.1v6.2l0,0l0,0c-0.1,0.8-0.4,1.6-0.9,2.3s-1.4,1.1-2.3,1.3c-0.9,0.2-1.8,0.3-2.8,0.2c-0.9,0-1.8-0.2-2.8-0.4
			c-1.8-0.4-3.5-0.9-5.3-1.5C34.6,38.2,32.9,37.5,31.3,36.7L31.3,36.7z"/>
	</g>
	<g>
		<ellipse class="st0" cx="33.9" cy="29.9" rx="6.4" ry="5.5"/>
		<ellipse class="st2" cx="33.9" cy="29.8" rx="4.5" ry="3.9"/>
	</g>
	<g>
		<ellipse class="st0" cx="6.1" cy="34.2" rx="5" ry="4.3"/>
		<ellipse class="st2" cx="6.1" cy="34.2" rx="3.5" ry="3"/>
	</g>
	<g>
		<ellipse class="st0" cx="16.5" cy="24.1" rx="5.1" ry="4.4"/>
		<ellipse class="st2" cx="16.5" cy="24.1" rx="3.5" ry="3.1"/>
	</g>
	<g>
		<ellipse class="st0" cx="6.6" cy="7.4" rx="6.4" ry="5.5"/>
		<ellipse class="st2" cx="6.6" cy="7.3" rx="4.5" ry="3.9"/>
	</g>
	<g>
		<path class="st1" d="M19.1,43.8h1.4v0c0,0.5,0.4,0.8,1.2,1.1c0.8,0.3,1.8,0.4,3.1,0.4c1.3,0,2.3-0.1,3.1-0.4
			c0.8-0.2,1.1-0.6,1.1-0.9c0-0.3-0.2-0.5-0.6-0.7c-0.4-0.2-1.4-0.3-2.7-0.4l-2.9-0.2c-1.1-0.1-1.9-0.3-2.4-0.5
			c-0.5-0.3-0.8-0.6-0.8-1c0-0.6,0.5-1,1.4-1.3c0.9-0.3,2.2-0.5,3.7-0.5c1.6,0,2.9,0.2,3.8,0.5s1.4,0.8,1.5,1.4h-1.4
			c-0.1-0.4-0.5-0.8-1.1-1c-0.7-0.2-1.6-0.3-2.8-0.3c-1.2,0-2.1,0.1-2.8,0.3c-0.7,0.2-1,0.5-1,0.9c0,0.3,0.2,0.5,0.7,0.7
			c0.5,0.2,1.4,0.3,2.6,0.4l2.6,0.2c1.2,0.1,2.1,0.3,2.7,0.5c0.6,0.3,0.9,0.6,0.9,1.1c0,0.6-0.5,1.1-1.4,1.4c-1,0.3-2.3,0.5-4,0.5
			c-1.8,0-3.2-0.2-4.2-0.6C19.5,45.1,19,44.5,19.1,43.8L19.1,43.8L19.1,43.8z"/>
		<path class="st1" d="M34.6,44.6c0,0.3,0.1,0.6,0.2,0.6c0.2,0.1,0.5,0.1,0.9,0.1c0.2,0,0.3,0,0.5,0c0.2,0,0.4,0,0.6-0.1v0.5
			c-0.3,0-0.6,0.1-0.9,0.1s-0.5,0-0.8,0c-0.7,0-1.2-0.1-1.5-0.3c-0.3-0.2-0.5-0.5-0.5-0.9v-2.9h-1.7v-0.5h1.7v-1.3h1.3v1.3h2.2v0.5
			h-2.2L34.6,44.6L34.6,44.6z"/>
		<path class="st1" d="M47.5,41.3v4.6h-1.2V45c-0.5,0.3-1.1,0.6-1.8,0.7c-0.7,0.2-1.5,0.2-2.4,0.2c-1.3,0-2.3-0.1-2.9-0.4
			c-0.6-0.3-0.9-0.7-0.9-1.3v-2.9h1.3v2.6c0,0.6,0.2,1,0.6,1.2c0.4,0.2,1.1,0.3,2.1,0.3c1.1,0,2.1-0.1,2.8-0.4
			c0.7-0.3,1.1-0.7,1.1-1.1v-2.6L47.5,41.3L47.5,41.3z"/>
		<path class="st1" d="M60.1,39.6v6.2h-1.3V45c-0.5,0.3-1.1,0.6-1.7,0.7c-0.6,0.2-1.4,0.2-2.3,0.2c-1.5,0-2.8-0.2-3.8-0.7
			c-0.9-0.4-1.4-1-1.4-1.7c0-0.7,0.5-1.3,1.4-1.7s2.2-0.7,3.8-0.7c0.8,0,1.6,0.1,2.2,0.2c0.6,0.1,1.2,0.4,1.7,0.7v-2.4L60.1,39.6
			L60.1,39.6z M58.8,43.6c0-0.6-0.4-1-1.1-1.3c-0.7-0.3-1.7-0.5-2.9-0.5c-1.2,0-2.1,0.2-2.9,0.5c-0.7,0.3-1.1,0.8-1.1,1.3
			c0,0.6,0.3,1,1.1,1.3c0.7,0.3,1.7,0.5,2.9,0.5c1.2,0,2.1-0.2,2.9-0.5C58.4,44.5,58.8,44.1,58.8,43.6z"/>
		<path class="st1" d="M72.4,44.4c-0.3,0.5-0.8,0.9-1.7,1.2c-0.9,0.3-1.9,0.4-3.2,0.4c-1.6,0-2.9-0.2-3.8-0.7c-1-0.5-1.5-1-1.5-1.8
			c0-0.7,0.5-1.3,1.5-1.8c1-0.5,2.3-0.7,3.8-0.7c1.6,0,2.9,0.2,3.8,0.7c0.9,0.4,1.4,1,1.4,1.8v0.1h-9.2c0.1,0.6,0.5,1,1.1,1.3
			c0.7,0.3,1.6,0.5,2.8,0.5c0.8,0,1.5-0.1,2.1-0.3c0.6-0.2,1-0.4,1.3-0.8L72.4,44.4L72.4,44.4z M63.7,43.2h7.6
			c-0.1-0.5-0.5-0.8-1.1-1.1c-0.7-0.3-1.6-0.4-2.6-0.4c-1.1,0-2,0.1-2.7,0.4C64.1,42.4,63.8,42.7,63.7,43.2z"/>
		<path class="st1" d="M74.8,45.8v-4.6h1.2v0.8c0.5-0.3,1.1-0.6,1.8-0.7c0.7-0.1,1.5-0.2,2.4-0.2c1.3,0,2.3,0.1,2.9,0.4
			c0.6,0.3,0.9,0.7,0.9,1.3v3h-1.3v-2.6c0-0.6-0.2-1-0.6-1.2c-0.4-0.2-1.1-0.3-2.1-0.3c-1.1,0-2.1,0.1-2.8,0.4
			c-0.7,0.3-1.1,0.7-1.1,1.1v2.6L74.8,45.8L74.8,45.8z"/>
		<path class="st1" d="M88.6,44.6c0,0.3,0.1,0.6,0.2,0.6c0.2,0.1,0.5,0.1,0.9,0.1c0.2,0,0.3,0,0.5,0c0.2,0,0.4,0,0.6-0.1v0.5
			c-0.3,0-0.6,0.1-0.9,0.1c-0.3,0-0.5,0-0.8,0c-0.7,0-1.2-0.1-1.5-0.3c-0.3-0.2-0.5-0.5-0.5-0.9v-2.9h-1.7v-0.5h1.7v-1.3h1.3v1.3
			h2.3v0.5h-2.3V44.6L88.6,44.6z"/>
		<path class="st1" d="M92.6,45.8v-6.2H98c1.7,0,2.9,0.2,3.7,0.5c0.8,0.3,1.2,0.8,1.2,1.4c0,0.6-0.4,1.1-1.2,1.4
			c-0.8,0.3-2.1,0.5-3.7,0.5h-4.1v2.5L92.6,45.8L92.6,45.8z M93.9,42.7h3.9c1.4,0,2.4-0.1,3-0.3c0.6-0.2,0.8-0.5,0.8-1
			c0-0.5-0.3-0.8-0.8-1c-0.6-0.2-1.5-0.3-3-0.3h-3.9V42.7L93.9,42.7z"/>
		<path class="st1" d="M105.2,45.8v-6.2h1.3v6.2H105.2z"/>
		<path class="st1" d="M118.5,41.3v4.6h-1.2V45c-0.5,0.3-1.1,0.6-1.8,0.7c-0.7,0.2-1.5,0.2-2.4,0.2c-1.3,0-2.3-0.1-2.9-0.4
			c-0.6-0.3-0.9-0.7-0.9-1.3v-2.9h1.3v2.6c0,0.6,0.2,1,0.6,1.2c0.4,0.2,1.1,0.3,2.1,0.3c1.1,0,2.1-0.1,2.8-0.4
			c0.7-0.3,1.1-0.7,1.1-1.1v-2.6L118.5,41.3L118.5,41.3z"/>
		<path class="st1" d="M120.4,44.4h1.3c0.1,0.3,0.4,0.6,1,0.8c0.6,0.2,1.4,0.3,2.5,0.3c1.1,0,2-0.1,2.5-0.2c0.6-0.1,0.9-0.4,0.9-0.6
			c0-0.2-0.2-0.4-0.4-0.5c-0.3-0.1-0.8-0.2-1.4-0.2l-2.9-0.2c-1.1-0.1-1.9-0.2-2.4-0.4c-0.5-0.2-0.8-0.5-0.8-0.8
			c0-0.4,0.4-0.8,1.2-1c0.8-0.2,1.8-0.4,3.2-0.4c1.4,0,2.5,0.1,3.2,0.4c0.8,0.3,1.2,0.6,1.2,1.1h-1.3c-0.1-0.3-0.4-0.6-1-0.7
			c-0.6-0.2-1.4-0.2-2.4-0.2c-0.9,0-1.6,0.1-2.1,0.2s-0.8,0.3-0.8,0.6c0,0.2,0.2,0.4,0.5,0.5c0.3,0.1,0.9,0.2,1.8,0.3l2.6,0.2
			c1.1,0.1,1.9,0.2,2.4,0.4c0.5,0.2,0.7,0.5,0.7,0.8c0,0.5-0.4,0.8-1.2,1.1s-2,0.4-3.7,0.4c-1.4,0-2.5-0.1-3.3-0.4
			C121,45.3,120.5,44.9,120.4,44.4z"/>
	</g>
</g>
</svg>
