<svg width="1276" height="1091" viewBox="0 0 1276 1091" fill="none" xmlns="http://www.w3.org/2000/svg">
<path d="M984.85 94.2467C1040.6 76.7373 1078.36 113.453 1090.27 134C1120.64 41.0933 1055.43 2.23333 1000.48 16.08C942.862 28.14 916.358 14.5911 904 0C907.722 38.7111 929.104 111.756 984.85 94.2467Z" fill="#21325B"/>
<path d="M955.157 94C943.437 131.195 935.397 210.584 996.991 230.58C1023.25 236.829 1061.08 222.546 1075.32 185.946L1086 162.29" stroke="#21325B" stroke-width="5" stroke-linecap="round"/>
<path d="M1086 138.56C1088.65 134.147 1094.99 128.173 1099.11 139.578C1103.23 150.984 1092.09 159.945 1086 163" stroke="#21325B" stroke-width="5" stroke-linecap="round"/>
<path d="M1091 142C1092.4 142.933 1094.45 145.64 1091.47 149" stroke="#21325B" stroke-width="5" stroke-linecap="round"/>
<path d="M1001 121C1000.09 127.407 995.818 141.776 986 148" stroke="#21325B" stroke-width="5" stroke-linecap="round"/>
<path d="M1000 156C998.796 153.333 992.503 148.711 986 148" stroke="#21325B" stroke-width="5" stroke-linecap="round"/>
<path d="M1029 110.007C1033.68 109.861 1043.84 111.854 1047 121" stroke="#21325B" stroke-width="5" stroke-linecap="round"/>
<path d="M960 119C960.875 114.85 964.9 106.643 974 107.012" stroke="#21325B" stroke-width="5" stroke-linecap="round"/>
<ellipse cx="975.5" cy="123" rx="4.5" ry="6" fill="#21325B"/>
<ellipse cx="1033" cy="131" rx="4" ry="5" fill="#21325B"/>
<path d="M1072 226C1115.94 241.061 1212.22 284.605 1245.82 338.289C1279.43 391.974 1241.8 418.368 1210.52 428.211L1149.75 447" stroke="#21325B" stroke-width="5" stroke-linecap="round"/>
<path d="M988.937 229.114L985.798 258.148M1077.72 184L1067.41 247.428M971 256.362C989.385 261.424 1037.72 265.116 1084 239.388" stroke="#21325B" stroke-width="5" stroke-linecap="round"/>
<path d="M968.712 888.14C913.797 739.577 918.33 610.746 935.711 570.606C995.367 614.763 1109.55 578.618 1148.24 563C1199.99 617.76 1155.28 910.745 1126.46 1050.39C1115.37 1068.65 1091.48 1059.27 1080.92 1052.29L1067.72 955.323L1052.54 1040.25C1044.09 1054.45 1019.1 1051.66 1007.65 1048.49L968.712 888.14Z" fill="#21325B"/>
<path d="M948.885 324C922.956 354.848 910.239 478.602 936.368 568.104C961.403 588.222 1015.5 607.447 1146.03 562.739C1152.74 557.374 1152.34 560.486 1151.62 531.575C1150.73 495.436 1151.17 414.7 1141.78 373.178" stroke="#21325B" stroke-width="5" stroke-linecap="round"/>
<path d="M1255.87 394C1270.75 412.237 1285.51 469.607 1255.87 502.971C1226.24 536.335 1173.61 568.892 1151 581M1151 494.002L1189.83 451.4C1192.35 448.411 1196.52 440.548 1192.95 433.014" stroke="#21325B" stroke-width="5" stroke-linecap="round"/>
<path d="M982.768 1060.58C993.528 1060.58 1004.74 1052.66 1008.32 1048.7C1028.23 1054.13 1043.07 1049.83 1048 1047V1064.54C1035.63 1077.22 996.889 1079.82 980.078 1074.16C969.99 1069.64 973.559 1060.58 982.768 1060.58Z" stroke="#21325B" stroke-width="5"/>
<path d="M1066.13 1061.8C1073.13 1060.91 1081.17 1056.23 1084.31 1054C1098.85 1062.02 1114.16 1059.57 1120 1057.34V1067.37C1120 1074.05 1114.61 1075.72 1111.25 1076.84L1079.59 1086.31C1071.51 1088.35 1058.04 1090.21 1051.98 1081.3C1045.18 1071.29 1057.37 1062.91 1066.13 1061.8Z" stroke="#21325B" stroke-width="5"/>
<path d="M238 798.591V839.978L276.171 861M238 798.591L276.171 819.613M238 798.591L276.171 771L315 792.679M276.171 861V819.613M276.171 861L315 834.723V792.679M276.171 819.613L315 792.679" stroke="#21325B" stroke-width="5"/>
<path d="M296.758 738L275 771.393L313.242 793L335 759.607L296.758 738Z" stroke="#21325B" stroke-width="5"/>
<path d="M238 733L246 751" stroke="#21325B" stroke-width="5" stroke-linecap="round"/>
<path d="M210 743L236 765" stroke="#21325B" stroke-width="5" stroke-linecap="round"/>
<path d="M209 772L225 781" stroke="#21325B" stroke-width="5" stroke-linecap="round"/>
<path d="M276.5 773V799.429M276.5 799.429L261 810M276.5 799.429L292 808.018" stroke="#21325B" stroke-width="5" stroke-linecap="round"/>
<path d="M449.846 996L393.313 975.331C392.525 975.042 392 974.292 392 973.452V919.255C392 917.952 393.225 916.997 394.488 917.315L394.629 917.351M449.846 996V938.5M449.846 996L485.489 956.254C485.818 955.887 486 955.411 486 954.918V903.471M449.846 938.5L394.629 917.351M449.846 938.5L486 903.471M394.629 917.351L429.844 881.944C430.413 881.372 431.269 881.198 432.016 881.502L486 903.471" stroke="#21325B" stroke-width="5" stroke-linecap="round"/>
<path d="M986 230.5C957.833 228 905 235 852.5 262C829.167 274 772.8 286.4 734 240C730 235.5 725.5 229 724.5 222C723.812 217.183 718.667 213.833 715.5 214M716 222C716 218.333 716.3 211.1 707.5 211.5M709.5 218.5C708.167 214.667 704.39 207.4 697.59 211M704 223C701.833 221.667 699 216.2 697 209C695 201.8 684.5 195.667 679.5 193.5C676.833 192.333 671.5 191.7 671.5 198.5C671.5 204.5 686.2 209.7 687 218.5C687.8 227.3 687.333 231.167 687 232C686.167 233.667 683.2 235.7 678 230.5C672.8 225.3 666 224 662.5 225C659.5 226 655.3 229.4 662.5 235C667.849 239.161 685.4 246.9 701 266.5C716.6 286.1 736.167 307 744 315C760.167 329.167 804.5 354.4 852.5 342" stroke="#21325B" stroke-width="5" stroke-linecap="round"/>
<path d="M986 186.906C990.919 191.103 1004.13 194.59 1012 184" stroke="#21325B" stroke-width="5" stroke-linecap="round"/>
<path d="M859.721 270C860.468 285.061 860.169 323.147 853 355" stroke="#21325B" stroke-width="5" stroke-linecap="round"/>
<path d="M853 354.902C870.944 357.741 918.309 357.054 966 328" stroke="#21325B" stroke-width="5" stroke-linecap="round"/>
<path d="M841.5 345C843.333 348.5 847.5 353 852.5 353" stroke="#21325B" stroke-width="5" stroke-linecap="round"/>
<path d="M528 163.5C529.6 165.9 558.333 218.167 572.5 244M577 256C595.167 239 638.4 203.2 666 196M622.5 110.5L662.5 189.5M530.5 158.5C543.5 144.167 577.7 116 610.5 118" stroke="#21325B" stroke-width="5" stroke-linecap="round"/>
<path d="M577.5 184L609 199.5L614 137.5" stroke="#21325B" stroke-width="5" stroke-linecap="round"/>
<path d="M575.5 183H601L613.5 139" stroke="#21325B" stroke-width="5" stroke-linecap="round"/>
<path d="M287 329.155C288.136 330.837 308.541 367.478 318.601 385.588M321.797 394C334.698 382.082 365.4 356.986 385 351.938M354.109 292L382.514 347.381M288.775 325.649C298.007 315.601 322.294 295.856 345.587 297.258" stroke="#21325B" stroke-width="5" stroke-linecap="round"/>
<path d="M322 343.25L344.438 354L348 311" stroke="#21325B" stroke-width="4" stroke-linecap="round"/>
<path d="M321 343H339.118L348 312" stroke="#21325B" stroke-width="4" stroke-linecap="round"/>
<path d="M192.5 426.5C198.167 418.333 247.5 379.9 257.5 375.5M223 435.5C228 427.833 247 409.5 265 402.5M411.5 272.5L478 216M427 298C432.5 288.667 460.6 264.3 483 257.5" stroke="#21325B" stroke-opacity="0.3" stroke-width="5" stroke-linecap="round"/>
<path d="M3 948.426V994.776C3 995.258 3.1742 995.724 3.49052 996.088L29.7232 1026.27M3 948.426L29.7232 974.591M3 948.426L48.5101 941.158C49.1331 941.059 49.7665 941.259 50.219 941.698L76 966.742M29.7232 1026.27V974.591M29.7232 1026.27L74.3754 1017.74C75.3182 1017.56 76 1016.73 76 1015.77V966.742M29.7232 974.591L76 966.742" stroke="#21325B" stroke-width="5" stroke-linecap="round"/>
<path d="M102 465.041C102.742 466.13 116.068 489.838 122.638 501.557M124.725 507C133.15 499.289 153.2 483.049 166 479.784M145.826 441L164.377 476.835M103.159 462.773C109.188 456.271 125.049 443.495 140.261 444.402" stroke="#21325B" stroke-width="5" stroke-linecap="round"/>
<path d="M125 474L139.671 481L142 453" stroke="#21325B" stroke-width="3" stroke-linecap="round"/>
<path d="M124 474H136.079L142 454" stroke="#21325B" stroke-width="3" stroke-linecap="round"/>
</svg>
