<?xml version="1.0" encoding="utf-8"?>
<svg xmlns="http://www.w3.org/2000/svg" viewBox="0 0 32 32" width="512" height="512">
  <path d="M18 2.8671875L0 5.1171875L0 26.882812L18 29.132812L18 28L18 26.888672C18.324816 26.95515 18.657045 27 19 27L21 27C22.900869 27 24.508425 25.886994 25.353516 24.314453C25.842791 24.661448 26.360511 25 27 25L28.630859 25C30.479712 25 32 23.479712 32 21.630859L32 17L26 17L26 16L18 16L18 13.488281C18.575511 13.801729 19.24732 14 20 14C21.25 14 22.314774 13.495244 22.998047 12.726562C23.681319 11.957882 24 10.972222 24 10C24 9.0277779 23.681319 8.0421194 22.998047 7.2734375C22.314774 6.5047556 21.25 6 20 6C19.24732 6 18.575511 6.1982713 18 6.5117188L18 2.8671875 z M 16 5.1328125L16 10L16 26.867188L2 25.117188L2 6.8828125L16 5.1328125 z M 20 8C20.749999 8 21.185226 8.2452444 21.501953 8.6015625C21.81868 8.9578806 22 9.4722221 22 10C22 10.527778 21.81868 11.042119 21.501953 11.398438C21.185226 11.754755 20.749999 12 20 12C19.250001 12 18.814774 11.754756 18.498047 11.398438C18.18132 11.042118 18 10.527778 18 10C18 9.4722221 18.18132 8.9578806 18.498047 8.6015625C18.814774 8.2452444 19.250001 8 20 8 z M 28 9C27.083334 9 26.268559 9.3797556 25.751953 9.9609375C25.235347 10.542119 25 11.277778 25 12C25 12.722222 25.235347 13.457881 25.751953 14.039062C26.268559 14.620245 27.083334 15 28 15C28.916666 15 29.731441 14.620244 30.248047 14.039062C30.764653 13.457882 31 12.722222 31 12C31 11.277778 30.764653 10.542119 30.248047 9.9609375C29.731441 9.3797556 28.916666 9 28 9 z M 28 11C28.416666 11 28.601893 11.120244 28.751953 11.289062C28.902014 11.457882 29 11.722222 29 12C29 12.277778 28.90201 12.542119 28.751953 12.710938C28.601893 12.879755 28.416666 13 28 13C27.583334 13 27.398107 12.879756 27.248047 12.710938C27.097986 12.542118 27 12.277778 27 12C27 11.722222 27.097986 11.457881 27.248047 11.289062C27.398107 11.120245 27.583334 11 28 11 z M 5 12L5 14L8 14L8 21L10 21L10 14L13 14L13 12L5 12 z M 18 18L24 18L24 22C24 23.668484 22.668484 25 21 25L19 25C18.645804 25 18.312511 24.933045 18 24.822266L18 18 z M 26 19L30 19L30 21.630859C30 22.400007 29.400007 23 28.630859 23L27 23C26.43497 23 26 22.56503 26 22L26 19 z" fill="#FFFFFF" />
</svg>